<?xml version="1.0" encoding="utf-8"?>
<!-- Generator: Adobe Illustrator 22.1.0, SVG Export Plug-In . SVG Version: 6.00 Build 0)  -->
<svg version="1.1" id="Livello_1" xmlns="http://www.w3.org/2000/svg" xmlns:xlink="http://www.w3.org/1999/xlink" x="0px" y="0px"
	 viewBox="0 0 566.9 566.9" style="enable-background:new 0 0 566.9 566.9;" xml:space="preserve">
<style type="text/css">
	.st0{fill:#EB8171;}
	.st1{fill:#FFFFFF;}
</style>
<g>
	<g>
		<circle class="st0" cx="283.5" cy="283.5" r="257.4"/>
		<g>
			<path class="st1" d="M253.3,430.4c0,3.6,2.2,4.2,3.2,4.2c1.9,0,3-1.6,3-3c0-1.6-1.3-2.1-6.1-4.2c-2.2-0.9-7.6-3.1-7.6-8.9
				c0-6.3,5.7-9.6,10.9-9.6c4.3,0,10.3,2.2,10.5,9.7h-7.9c-0.2-1.1-0.4-3-2.9-3c-1.4,0-2.7,1-2.7,2.4s0.8,1.8,6.4,4.3
				c5.8,2.6,7.3,5.3,7.3,8.9c0,5-2.6,10-10.9,10c-8.2,0-11.4-4.8-11.2-10.9h8V430.4z"/>
			<path class="st1" d="M271.3,409.6h17.6v7h-9.7v4.8h9.4v7h-9.4v5.3h9.7v7h-17.6V409.6z"/>
			<path class="st1" d="M302,424.1l-9.6-14.6h9l5.3,8.9l5.2-8.9h9l-9.5,14.7l10.8,16.4h-9l-6.7-11l-6.4,11h-8.9L302,424.1z"/>
		</g>
		<g id="fDKmyO.tif_4_">
			<g>
				<g>
					<path class="st1" d="M298.9,252.6c-0.1-8.9,3.5-16.3,9.2-22.9c1-1.1,1.9-2.2,3-3.2c8.8-8.5,11.2-18.9,7.8-30.2
						c-2.6-8.7-6.3-17.2-10-25.5c-3.6-8.1-5.4-16.4-4.6-25.2c1.6-17.1,14.4-21.9,25.9-19.4c6.3,1.3,10.1,5.9,12.8,11.4
						c3.3,6.7,4.6,14,5.6,21.3c1.6,11.6,2.9,23.3,7.3,34.3c3.1,7.7,6.7,15.2,10.6,22.5c3.5,6.7,5.2,13.8,5.7,21.2
						c0.4,6.7-1.3,13.1-5.8,18.2c-7.8,8.8-16.5,16.6-28,20.2c-7.6,2.4-15.4,4.1-23.5,2c-9.6-2.6-14-7.5-15.2-17.4
						C299.4,257.4,299.2,255,298.9,252.6z"/>
				</g>
				<g>
					<path class="st1" d="M268.9,145.5c0,9.2-3.6,17.2-7.7,25.1c-3.9,7.3-7.7,14.7-9.6,22.9c-2.2,10-0.7,19,6.5,26.8
						c2.1,2.2,4.1,4.6,5.9,7.1c6,8.1,7.2,17.1,5.1,26.8c-2.6,12.3-12.4,18.4-25.1,16.9c-15.9-1.9-28.3-9.7-38.9-21
						c-7.1-7.5-8.9-16.4-6.8-26.4c1.3-6.2,3.6-11.8,6.8-17c8.2-13.4,14.3-27.6,17.1-43.2c1.5-8.2,3.2-16.3,5.5-24.2
						c1.8-6.3,5.1-11.9,11.2-15.1c12.2-6.5,27.7,1.6,29.4,15.3C268.5,141.4,268.7,143.4,268.9,145.5z"/>
				</g>
				<g>
					<path class="st1" d="M453.8,237.4c-0.2,7.9-2.7,15.1-6.8,21.7c-5.5,8.8-11.9,17-16.8,26.1c-4.2,7.9-6.9,16.6-9.9,25
						c-2.8,8-5.1,16.2-9.9,23.3c-5.3,8-12.1,10.9-20.1,8.5c-8.1-2.4-12.8-9-12.8-18.3c0-9.4,3-17.9,8-25.9c4.7-7.5,9.6-15.1,13.5-23
						c5.4-10.8,5.1-21.6-1.8-31.9c-8.1-12.1-7.4-24.7-1.7-37.4c3.1-6.8,11.9-10.9,20-9.2c10.7,2.3,19.9,7.2,26.8,16
						c2.2,2.8,4.3,5.8,6.4,8.7C452.3,225.9,454,231.3,453.8,237.4z"/>
				</g>
				<g>
					<path class="st1" d="M153.9,203.2c7.1-0.1,12.1,2.7,15.6,8.5c4.1,6.8,7.3,13.9,6.6,22c-0.3,3.5-0.8,7.3-2.2,10.5
						c-6.7,14.2-2.7,26.4,6.9,37.4c5.4,6.2,11.4,11.9,16.8,18.1c5.8,6.6,9.3,14.3,10.3,23.1c0.7,7-2.5,13.3-8.6,16.8
						c-6.8,3.8-13.5,3.8-19.1-1.2c-3.9-3.5-7.3-7.7-10.4-12c-2.9-4.1-5.3-8.6-7.6-13.1c-7.5-14.5-17.6-26.8-29.9-37.3
						c-6.2-5.3-10.9-11.7-14-19.1c-2.5-5.9-3.2-12.2-1-18.3c2.8-7.9,6.3-15.4,11.9-21.7c5.7-6.4,12.6-11.1,21-13.2
						C151.4,203.2,152.9,203.3,153.9,203.2z"/>
				</g>
				<g>
					<path class="st1" d="M318,307c-4.9-0.2-8.4-2.6-10.7-6.8c-2.5-4.5-3.3-9.4-2.4-14.4c1-6,7.4-8.7,12.3-5.1
						c5.9,4.4,9,10.5,9.5,17.8C327,303.7,323.3,307.2,318,307z"/>
				</g>
				<g>
					<path class="st1" d="M263.3,282.3c-0.2,4.9-1.3,9.5-4.8,13.2c-3.4,3.6-7.5,5-12.3,3.5c-4.5-1.4-6.3-5.5-4.9-10.9
						c1.2-4.9,3.8-8.9,7.3-12.5c3-2.9,6.4-4,10.3-2.4C262.9,274.9,263.3,278.6,263.3,282.3z"/>
				</g>
				<g>
					<path class="st1" d="M402.6,185.9c0.4-5.1,2-9.9,5.4-13.8c3.3-3.8,8.5-5,12.3-3c3.1,1.6,4.5,4.5,3.8,7.9
						c-1.2,6.3-4.7,11.1-9.6,15.1c-2.6,2.1-5.5,2.8-8.6,1.1C403,191.6,402.5,188.9,402.6,185.9z"/>
				</g>
				<g>
					<path class="st1" d="M157.6,193.1c0.1,5.5-3.5,8.7-7.7,8c-5.7-0.8-14.2-8.7-15.6-14.4c-1.4-5.6,3.4-10.4,9.3-9.5
						c3.6,0.5,6.4,2.3,8.6,5.1C155.1,185.8,157.3,189.6,157.6,193.1z"/>
				</g>
				<g>
					<path class="st1" d="M344.5,293.1c0.2,3.3-0.6,6.2-3.9,7.7c-3,1.3-5.6,0.5-7.8-1.7c-1.2-1.2-2.3-2.8-3.1-4.3
						c-1.4-2.8-1.6-5.8-0.6-8.8c0.9-2.6,2.2-5,5.3-5.4c3.1-0.4,5.8,0.7,7.3,3.4c1.5,2.8,2.4,5.9,3.5,8.9
						C345,292.9,344.8,293,344.5,293.1z"/>
				</g>
				<g>
					<path class="st1" d="M239.2,281.5c-0.2,4.1-1.5,7.4-4.6,9.9c-2.3,1.8-4.7,2.7-7.6,1.4c-2.9-1.3-4.2-3.7-3.9-6.6
						c0.2-2.9,0.9-5.9,2.2-8.6c1.6-3.5,5.7-5.3,8.7-4.4C237.2,274.1,239.2,277.4,239.2,281.5z"/>
				</g>
				<g>
					<path class="st1" d="M439.1,183.3c-0.4,3.8-1.4,7.6-4.3,10.6c-1.8,1.9-4.1,3.1-6.9,2.3s-3.5-3.4-4-5.8
						c-0.8-4.4,2.1-10.2,6-12.5c1.9-1.1,3.9-1.8,6-0.5C438,178.6,439.1,180.5,439.1,183.3z"/>
				</g>
				<g>
					<path class="st1" d="M137.1,201c0,5.3-4,8-8.6,5.5c-4.6-2.5-7.2-6.6-7.5-11.8c-0.3-4.1,3.3-6.7,7.2-5.6
						C133.2,190.5,137,195.6,137.1,201z"/>
				</g>
				<g>
					<path class="st1" d="M358.5,283.2c0,3-1.5,5.8-3.7,6.5c-2.8,0.9-5.2-0.3-6.8-2.5c-1.3-1.8-2.3-4-2.7-6.2
						c-0.4-2.2,0.5-4.4,2.7-5.7c2-1.1,5.4-0.8,7.3,0.6C357.3,277.6,358.5,280.3,358.5,283.2z"/>
				</g>
				<g>
					<path class="st1" d="M222.9,272.5c0,4.6-3.9,9.1-8,9.1c-3.1,0-5.5-2.8-5.4-6.5c0-4.6,3.5-8.4,7.6-8.4
						C220.7,266.7,222.9,268.9,222.9,272.5z"/>
				</g>
				<g>
					<path class="st1" d="M442.4,204.4c-3.8,0-5.8-2.3-5.4-6c0.3-3,1.8-5.3,4.2-7c3.8-2.7,7.2-1.3,8,3.4
						C450.1,199.2,446.5,204.4,442.4,204.4z"/>
				</g>
				<g>
					<path class="st1" d="M113.1,209.1c0-4,2.6-6,6.4-4.8c3.1,1,5.3,3.2,6.3,6.3c0.6,1.9,0.6,3.9-1.2,5.4c-2,1.7-4.2,2.1-6.7,1
						C115.2,215.6,113.1,212.3,113.1,209.1z"/>
				</g>
				<g>
					<path class="st1" d="M368.7,274.4c0,2.9-2,5.1-4.6,5.2c-3.3,0-6.3-3.4-6.3-7.1c0-3,2-5.2,4.6-5.2
						C365.7,267.3,368.8,270.7,368.7,274.4z"/>
				</g>
				<g>
					<path class="st1" d="M205.9,259.3c2.8,0,4.7,1.9,4.7,4.9c0,3.5-2.9,6.8-6.2,7c-2.6,0.1-4.7-2.1-4.7-5
						C199.6,262.6,202.5,259.4,205.9,259.3z"/>
				</g>
				<g>
					<path class="st1" d="M456.8,206.4c0,3.4-2.9,6.7-6,6.8c-2.4,0-4.2-1.9-4.2-4.5c-0.1-3.4,3.1-6.9,6.3-6.9
						C455.2,201.7,456.8,203.5,456.8,206.4z"/>
				</g>
				<g>
					<path class="st1" d="M113.9,227.5c-3.3-0.2-6.3-3.4-6.2-6.7c0.1-2.5,1.9-4.2,4.3-4.1c3.3,0.1,6.5,3.7,6.3,6.9
						C118.2,226.1,116.5,227.7,113.9,227.5z"/>
				</g>
				<g>
					<path class="st1" d="M367.5,261.9c-0.1-2.6,1.9-4.9,4.2-5c2.5-0.1,5.3,3.2,5.4,6.2c0,2.5-2,4.6-4.5,4.6
						C369.9,267.6,367.6,264.9,367.5,261.9z"/>
				</g>
				<g>
					<path class="st1" d="M201.3,253.6c-0.1,3.1-2.4,5.6-5.2,5.6c-2.4,0-4.5-2-4.5-4.3c0-2.7,3.2-6.3,5.5-6.2
						C199.5,248.7,201.4,251,201.3,253.6z"/>
				</g>
				<g>
					<path class="st1" d="M458.2,214.4c2.3,0,3.9,1.8,3.9,4.2c0,2.7-2.8,5.8-5.2,5.9c-1.9,0-3.7-1.9-3.7-4.2
						C453.1,217.5,455.7,214.4,458.2,214.4z"/>
				</g>
				<g>
					<path class="st1" d="M108.6,230.1c2.6,0,5.3,2.8,5.4,5.5c0,2.1-1.6,4.1-3.3,4.2c-2.7,0-5.8-3.1-5.8-5.8
						C104.9,231.8,106.5,230.1,108.6,230.1z"/>
				</g>
			</g>
		</g>
	</g>
</g>
</svg>
