<?xml version="1.0" encoding="utf-8"?>
<!-- Generator: Adobe Illustrator 22.1.0, SVG Export Plug-In . SVG Version: 6.00 Build 0)  -->
<svg version="1.1" id="Livello_1" xmlns="http://www.w3.org/2000/svg" xmlns:xlink="http://www.w3.org/1999/xlink" x="0px" y="0px"
	 viewBox="0 0 566.9 566.9" style="enable-background:new 0 0 566.9 566.9;" xml:space="preserve">
<style type="text/css">
	.st0{fill:#F4BE62;}
	.st1{fill:#FFFFFF;}
</style>
<g>
	<g>
		<circle class="st0" cx="283.5" cy="283.5" r="257.4"/>
		<g>
			<g>
				<path class="st1" d="M146.1,416.6H140v-7h20.2v7H154v24.1h-7.9V416.6z"/>
				<path class="st1" d="M171.2,409.6v18.8c0,1.1,0,2.5,0.5,3.7s1.6,2.2,3.5,2.2c2,0,3-0.9,3.5-2c0.5-1.2,0.5-2.7,0.5-3.9v-18.8h7.9
					v18.8c0,5.2-1.1,7.5-3.1,9.5c-2,2.1-4.8,3.4-8.7,3.4c-2.3,0-6.4-0.5-9-3.3s-3.1-5-3.1-9.6v-18.8L171.2,409.6L171.2,409.6z"/>
				<path class="st1" d="M192.7,409.6h10.2c4.9,0,7.9,0.9,9.6,2.2c2.6,2,3.8,5.1,3.8,8.5c0,2.4-0.7,4.2-1.6,5.6
					c-1.1,1.6-2.6,2.7-4,3.3l6.4,11.4h-8.2l-8.1-15h1.3c2,0,3.7-0.2,4.8-0.8c1-0.6,1.8-2.1,1.8-3.8c0-1.6-0.8-2.9-1.9-3.6
					c-0.9-0.5-2.1-0.8-3.2-0.8h-2.9v24.1h-7.9v-31.1H192.7z"/>
				<path class="st1" d="M230.3,409.6c5.8,0,7.9,0.9,9.6,2.3c2.4,2,3.7,5.1,3.7,8.2c0,3.2-1.3,6.5-3.3,8.2c-2.1,1.8-4.2,2.7-9.1,2.7
					h-3.1v9.8h-7.9v-31.1h10.1V409.6z M228.1,424h2.9c0.8,0,2,0,3.1-0.5s1.9-1.4,1.9-3.3s-0.9-2.7-2-3.2s-2.4-0.5-3.3-0.5h-2.6
					L228.1,424L228.1,424z"/>
				<path class="st1" d="M246.9,409.6h7.9v31.1h-7.9V409.6z"/>
				<path class="st1" d="M260.7,409.6h7.9v24.1h9.2v7h-17.2v-31.1H260.7z"/>
				<path class="st1" d="M277.9,425.5c0-10.2,7.8-16.5,16.4-16.5c9.6,0,16.4,7.5,16.4,16.1c0,8.7-6.8,16.1-16.5,16.1
					C284.5,441.3,277.9,433.5,277.9,425.5L277.9,425.5z M285.9,425.1c0,4.8,3.2,9.2,8.6,9.2c5.6,0,8.4-5.1,8.4-9.1s-2.7-9.2-8.5-9.2
					C288.9,416,285.9,420.7,285.9,425.1L285.9,425.1z"/>
				<path class="st1" d="M348.2,441.3c-0.6,0-1.2,0.1-2,0.1c-4.3,0-6.5-1.6-7.3-2.4c-3.6,2.2-6.7,2.4-8.7,2.4
					c-10,0-16.4-8.1-16.4-16c0-8.2,6.3-16.3,16.4-16.3c10,0,16.6,7.9,16.6,15.9c0,5.2-1.8,7.8-2.6,9c1,0.9,2.2,1.1,4.1,1.1v6.2
					H348.2z M330.1,416c-3.7,0-6.6,2.2-7.9,6c-0.1,0.4-0.3,0.8-0.3,1.3c0.9-0.3,2.5-0.9,4.6-0.9c2.3,0,4.2,0.5,6.6,2.1
					c2.1,1.4,3.3,2.6,4.9,4.4c0.5-1,0.8-2.4,0.8-4C338.8,419.4,334.8,416,330.1,416L330.1,416z M330.1,434.4c1.3,0,2.5-0.3,3.2-0.6
					c-1-1.3-1.9-2.1-2.6-2.8c-1.6-1.3-3.4-1.9-5-1.9c-1.3,0-2.3,0.2-2.9,0.5C324.1,432.8,327.5,434.4,330.1,434.4L330.1,434.4z"/>
				<path class="st1" d="M359.4,409.6v18.8c0,1.1,0,2.5,0.5,3.7s1.6,2.2,3.5,2.2c2,0,3-0.9,3.5-2c0.5-1.2,0.5-2.7,0.5-3.9v-18.8h7.9
					v18.8c0,5.2-1.1,7.5-3.1,9.5c-2,2.1-4.8,3.4-8.7,3.4c-2.3,0-6.4-0.5-9-3.3s-3.1-5-3.1-9.6v-18.8L359.4,409.6L359.4,409.6z"/>
				<path class="st1" d="M380.9,409.6h7.9v31.1h-7.9V409.6z"/>
				<path class="st1" d="M393.1,425.5c0-10.2,7.8-16.5,16.4-16.5c9.6,0,16.4,7.5,16.4,16.1c0,8.7-6.8,16.1-16.5,16.1
					C399.7,441.3,393.1,433.5,393.1,425.5L393.1,425.5z M401.1,425.1c0,4.8,3.2,9.2,8.6,9.2c5.6,0,8.4-5.1,8.4-9.1s-2.7-9.2-8.5-9.2
					C404,416,401.1,420.7,401.1,425.1L401.1,425.1z"/>
			</g>
		</g>
		<g>
			<g>
				<path class="st1" d="M358,197.4c-2.9-4.1-5.9-8.1-9.3-11.7c-5.4-5.8-11.2-11.2-16.8-16.8c-0.5-0.5-1-1.1-1.8-1.9
					c0,0-8.4-25-12.4-34.7c-1.3-2.3-2.5-4.5-3.8-6.6c-5.3-8.7-12.2-16.2-19.8-22.9c-5.9-5.3-12.9-8.8-20.1-11.7
					c-8-3.3-16.2-5.6-24.7-7.2c-10.7-2-21.5-3-32.3-1.8c-10.6,1.2-21.2,3-31.3,6.7c-2.8,1.1-5.7,2.1-8.5,3.3
					c-0.5,0.2-0.7,0.7-1.1,1.1c-2.6-0.3-4.5,1.4-6.6,2.5c-11.6,6.1-21.6,14.1-29.8,24.3c-7.5,9.2-12.9,19.4-16.6,30.6
					c-2.9,8.8-4.9,17.8-5.3,27.1c-0.2,3.7-0.6,7.3-0.5,11c0.2,7.3,1.4,14.4,3.5,21.4c2.4,8,5.7,15.6,9.6,23l2.9,5.5l0,0
					c2.4,4.6,4.7,9.2,7.1,13.8c4.9,9.4,9.1,19,11.9,29.2c1.1,4.1,1.7,8.3,2.4,12.5c0,0,3.6,25.8,2.6,29.8l10.9,7.5
					c11.2,7,22.5,13.9,33.8,20.7c14.3,8.5,28.6,16.9,43,25.4c1.1,0.7,1.7,0.2,2.4-0.5c6.6-6.6,13.3-13.1,19.7-19.8
					c3-3.1,6.4-4.2,10.4-3.6c5.1,0.8,10.1,2,15.3,2.7c6.4,0.9,12.4-0.5,17.7-4.2c3.1-2.1,5.3-5,7-8.4c1.9-4,1.3-8,0.5-12.1
					c-0.9-4.4-0.8-8.7,2.4-12.4c2.1-2.5,1-7-2.8-7.4c-6.1-0.6-9.7-4.5-10.9-10.4c-0.4-1.7-0.6-3.5-0.7-5.3c-0.2-2.3,1-16.7,3.4-21
					c3-8.9,7-17.4,12.3-25.2c4.1-6,8.7-11.7,15.2-15.4c1.4-0.8,2.8-1.5,4-2.5c2.2-1.8,2.4-3.2,1.3-5.7c-0.7-1.5-1.4-3.1-2.1-4.6
					c-1.6-3.5-1.1-5.6,2.3-7.6c3.1-1.8,6.3-3.5,9.4-5.3c1.8-1.1,3.5-2.3,5.1-3.7C359.4,202.8,359.9,200.1,358,197.4z"/>
			</g>
			<g>
				<g>
					<path class="st1" d="M371.8,279.5l-8.8,6.7l-3.8-6.6l10.2-4.3l-10.2-4.3l3.8-6.6l8.8,6.7l-1.5-10.9h7.5l-1.5,10.9l8.9-6.7
						l3.8,6.6l-10.2,4.3l10.2,4.3l-3.8,6.6l-8.9-6.7l1.5,10.9h-7.5L371.8,279.5z"/>
				</g>
				<g>
					<path class="st1" d="M400.8,284.4h-3.9v-6.5h5l1.3-7.5h-4.5v-6.5h5.6l1.3-7.4h6.7l-1.3,7.4h7.4l1.3-7.4h6.7l-1.3,7.4h3.9v6.5
						h-5l-1.3,7.5h4.5v6.5h-5.6l-1.3,7.6h-6.7l1.3-7.6h-7.4l-1.3,7.6h-6.7L400.8,284.4z M415.9,277.9l1.3-7.5h-7.3l-1.3,7.5H415.9z"
						/>
				</g>
				<g>
					<path class="st1" d="M440.5,257.5v-1h9v1l-2.4,22.4h-4.3L440.5,257.5z M440.9,283.8h8.2v8.1h-8.2V283.8z"/>
				</g>
			</g>
			<g>
				<path class="st1" d="M330.2,263h21.6v5.7h-15.3v6H350v5.7h-13.5v11h-6.2L330.2,263L330.2,263z"/>
			</g>
		</g>
	</g>
</g>
</svg>
