<?xml version="1.0" encoding="utf-8"?>
<!-- Generator: Adobe Illustrator 22.1.0, SVG Export Plug-In . SVG Version: 6.00 Build 0)  -->
<svg version="1.1" id="Livello_1" xmlns="http://www.w3.org/2000/svg" xmlns:xlink="http://www.w3.org/1999/xlink" x="0px" y="0px"
	 viewBox="0 0 566.9 566.9" style="enable-background:new 0 0 566.9 566.9;" xml:space="preserve">
<style type="text/css">
	.st0{fill:#4D5664;}
	.st1{fill:#FFFFFF;}
</style>
<g>
	<g>
		<circle class="st0" cx="283.5" cy="283.5" r="257.4"/>
		<g>
			<g>
				<path class="st1" d="M401.5,191.8c-0.3-1.6-1.6-2.7-3.2-3l-43.9-7.6l21.9-44.8c0.7-1.5,0.4-3.4-0.8-4.6
					c-1.2-1.2-3.1-1.4-4.6-0.6l-49.2,27.5l-11.3-28.5c-0.5-1.4-1.8-2.3-3.2-2.5c-1.5-0.1-2.9,0.5-3.7,1.8l-16,24.4
					c-1.2,1.8-0.7,4.2,1.1,5.4c1.8,1.2,4.2,0.7,5.4-1.1l11.8-18.1l10.2,25.7c0.4,1,1.3,1.9,2.3,2.2c1.1,0.4,2.2,0.3,3.2-0.3
					l42.2-23.6L345,182.4c-0.5,1.1-0.5,2.4,0,3.5c0.6,1.1,1.6,1.9,2.8,2.1l39.6,6.9l-40.6,27.9c-1,0.7-1.7,1.9-1.7,3.1
					c0,1.2,0.5,2.4,1.5,3.2l39,30.5l-41.8,12.1c-1.2,0.4-2.2,1.3-2.6,2.5s-0.2,2.5,0.5,3.5l31.7,44.9L320.5,301
					c-1-0.4-2.2-0.4-3.2,0.1s-1.7,1.4-2.1,2.4l-7.1,24l-14.6-12.3c-1.7-1.4-4.1-1.2-5.5,0.5s-1.2,4.1,0.5,5.5l19.2,16.2
					c0.7,0.6,1.6,0.9,2.5,0.9c0.4,0,0.8-0.1,1.1-0.2c1.3-0.4,2.3-1.4,2.6-2.6l7.6-25.6l61.3,25c1.6,0.7,3.5,0.2,4.5-1.2
					c1.1-1.4,1.1-3.3,0.1-4.7l-36.2-51.4l43.9-12.7c1.4-0.4,2.5-1.6,2.8-3s-0.3-2.9-1.4-3.8l-40.8-31.9l44.1-30.3
					C401.2,195,401.8,193.4,401.5,191.8z"/>
			</g>
			<g>
				<path class="st1" d="M320.5,221.4c-0.9-5.8-1.7-11.2-2-15.1c-1-14.4-14.8-23-36.7-23c-8.8,0-115.4-5.3-116.4-5.4l0.3,7.8
					l2.4,55.6l0.3,8l7-1.6l0,0c6.4-1.4,14.5-3,18-3c5,0,9.2,5,14,10.7c1.9,2.3,3.9,4.7,6.1,6.9c1.1,1.1,2,2.1,3,3
					c6.1,6.3,10.5,10.9,22.6,14.3c12.1,3.5,17,5.7,23.2,8.5c2.8,1.3,6.1,2.7,10.3,4.4c3.4,1.4,6.4,1.9,8.9,1.9
					c5.9,0,9.7-2.8,11.7-4.9c3.1-3.2,4.8-7.6,5.6-11.8c0.4-2.5-1-4.9-3.3-5.8c-0.6-0.2-0.8-0.4-0.8-0.4c-0.4-0.2-3.5-2.2-3.9-2.4
					c-2.9-1.9-7-4.4-11.4-7.1c-9.8-6.1-15.9-9.9-17.8-11.7c-0.4-0.4-0.7-0.9-0.9-1.5c-1.4-3.9-2.1-9.5-2.8-15.5
					c-0.2-2.1-0.5-4.2-0.8-6.3c-0.2-1.5,0.4-2.9,1.7-3.8c1.2-0.8,2.8-0.9,4.2-0.2c5.2,2.7,13.1,2.3,18.3,2c0.5,0,0.9,0,1.4-0.1
					l3.3-5.5c1.1-1.8,3.3-2.7,5.2-1.8c2.2,1,3,3.6,1.8,5.6l-3.1,5.2c0.8,0.8,1.7,1.7,2.5,2.4c0.7,0.6,1.4,1.2,1.9,1.7
					c1.7,1.7,1.5,4.5-0.4,6c-1.6,1.2-3.9,0.9-5.3-0.5c-0.4-0.4-0.9-0.8-1.5-1.3c-1.3-1.1-2.7-2.4-3.9-3.8c-0.4,0-0.9,0-1.3,0.1
					c-4.4,0.2-10.3,0.6-15.9-0.6v0.1c0.6,5,1.1,9.7,2.1,12.8c2.5,1.9,10.4,6.8,15.7,10.1c4.4,2.7,8.6,5.3,11.6,7.3
					c0,0,0.9,0.6,3,1.7c1.5,0.8,9.2,5.8,14.3,6.2c2.9,0.2,3.9-1.7,5.2-2.9c1.1-1,2.3-2.2,2.9-3.2
					C325.4,256.9,323.6,241.9,320.5,221.4z"/>
			</g>
		</g>
		<g>
			<path class="st1" d="M180.5,409.6h8.2l6.3,21.8l6.3-21.8h8.2l-10.4,31.1h-8.2L180.5,409.6z"/>
			<path class="st1" d="M213,409.6h7.9v31.1H213V409.6z"/>
			<path class="st1" d="M225.3,425.5c0-10.2,7.8-16.5,16.4-16.5c9.6,0,16.4,7.5,16.4,16.1c0,8.7-6.8,16.1-16.5,16.1
				C231.8,441.3,225.3,433.5,225.3,425.5L225.3,425.5z M233.2,425.1c0,4.8,3.2,9.2,8.6,9.2c5.6,0,8.4-5.1,8.4-9.1s-2.7-9.2-8.5-9.2
				C236.2,416,233.2,420.7,233.2,425.1L233.2,425.1z"/>
			<path class="st1" d="M262.6,409.6h7.9v24.1h9.2v7h-17.2v-31.1H262.6z"/>
			<path class="st1" d="M282.9,409.6h17.6v7h-9.7v4.8h9.4v7h-9.4v5.3h9.7v7h-17.6V409.6z"/>
			<path class="st1" d="M323.9,428.6l-0.2-19h7.6v31.1h-6.9L312.6,422l0.2,18.8h-7.6v-31.1h6.9L323.9,428.6z"/>
			<path class="st1" d="M344.6,433.7h9.9v7h-19.6v-5.2l10.7-18.9h-10.7v-7h19.6v6.4L344.6,433.7z"/>
			<path class="st1" d="M364.2,440.7h-8.6l12.3-31.1h6.9l11.9,31.1H378l-1.5-4.5h-10.9L364.2,440.7z M371,419l-3.4,10.9h6.9L371,419
				z"/>
		</g>
	</g>
</g>
</svg>
