<?xml version="1.0" encoding="utf-8"?>
<!-- Generator: Adobe Illustrator 22.1.0, SVG Export Plug-In . SVG Version: 6.00 Build 0)  -->
<svg version="1.1" id="Livello_1" xmlns="http://www.w3.org/2000/svg" xmlns:xlink="http://www.w3.org/1999/xlink" x="0px" y="0px"
	 viewBox="0 0 566.9 566.9" style="enable-background:new 0 0 566.9 566.9;" xml:space="preserve">
<style type="text/css">
	.st0{fill:#8BC47F;}
	.st1{fill:#FFFFFF;}
</style>
<g>
	<g>
		<circle class="st0" cx="283.5" cy="283.5" r="257.4"/>
		<g>
			<path class="st1" d="M159,409.6v18.8c0,1.1,0,2.5,0.5,3.7s1.6,2.2,3.5,2.2c2,0,3-0.9,3.4-2c0.5-1.2,0.5-2.7,0.5-3.9v-18.8h7.9
				v18.8c0,5.2-1.1,7.5-3.1,9.5c-2,2.1-4.8,3.4-8.7,3.4c-2.3,0-6.4-0.5-9-3.3s-3.1-5-3.1-9.6v-18.8L159,409.6L159,409.6z"/>
			<path class="st1" d="M186.7,430.4c0,3.6,2.2,4.2,3.2,4.2c1.9,0,3-1.6,3-3c0-1.6-1.3-2.1-6.1-4.2c-2.2-0.9-7.6-3.1-7.6-8.9
				c0-6.3,5.7-9.6,10.9-9.6c4.3,0,10.3,2.2,10.5,9.7h-7.9c-0.2-1.1-0.4-3-2.9-3c-1.4,0-2.7,1-2.7,2.4s0.8,1.8,6.4,4.3
				c5.8,2.6,7.3,5.3,7.3,8.9c0,5-2.6,10-10.9,10c-8.2,0-11.4-4.8-11.2-10.9h8V430.4z"/>
			<path class="st1" d="M203.3,425.5c0-10.2,7.8-16.5,16.4-16.5c9.6,0,16.4,7.5,16.4,16.1c0,8.7-6.8,16.1-16.5,16.1
				C209.9,441.3,203.3,433.5,203.3,425.5L203.3,425.5z M211.2,425.1c0,4.8,3.2,9.2,8.6,9.2c5.6,0,8.4-5.1,8.4-9.1s-2.7-9.2-8.5-9.2
				C214.2,416,211.2,420.7,211.2,425.1L211.2,425.1z"/>
			<path class="st1" d="M253.4,409.6h10.3c3.5,0,9.7,0,13.7,5.8c2.1,2.9,2.9,6.3,2.9,9.7c0,8.5-4.2,15.6-16,15.6h-10.9V409.6z
				 M261.4,433.7h3.4c5.9,0,7.6-4.1,7.6-8.5c0-1.8-0.4-4-1.5-5.8c-0.9-1.4-2.5-2.9-6.1-2.9h-3.5v17.2H261.4z"/>
			<path class="st1" d="M284.6,409.6h7.9v31.1h-7.9V409.6z"/>
			<path class="st1" d="M316.1,440.7h-8.6l12.3-31.1h6.9l11.9,31.1h-8.7l-1.5-4.5h-10.9L316.1,440.7z M322.9,419l-3.4,10.9h6.9
				L322.9,419z"/>
			<path class="st1" d="M341.8,409.6H352c4.9,0,7.9,0.9,9.6,2.2c2.6,2,3.8,5.1,3.8,8.5c0,2.4-0.7,4.2-1.6,5.6
				c-1.1,1.6-2.6,2.7-4,3.3l6.4,11.4H358l-8.1-15h1.3c2,0,3.7-0.2,4.8-0.8c1-0.6,1.8-2.1,1.8-3.8c0-1.6-0.8-2.9-1.9-3.6
				c-0.9-0.5-2.1-0.8-3.2-0.8h-2.9v24.1h-7.9L341.8,409.6L341.8,409.6z"/>
			<path class="st1" d="M369.3,440.7v-31.1H380l5.8,20.1l5.7-20.1h10.7v31.1h-7.3l0.3-23.3l-6.7,23.3h-5.3l-6.7-23.3l0.2,23.3H369.3
				z"/>
			<path class="st1" d="M407.8,409.6h7.9v31.1h-7.9V409.6z"/>
		</g>
		<g>
			<g>
				<path class="st1" d="M393.8,163.3l-4.1,4.1c-4-2.2-10,1.2-13.7,4.8l1.8,6.7L317.7,239l-1.9,0.2l-29.2,29.2l-4.8-1.5l-1.5,1.5
					l1.5,4.8c0,0-4.1,4.1-4.3,7.3c-0.2,3.2-3.3,4.2-4.6,4.2c-1.7,0.1-5.7,4,0.4,7.5c6,3.5,6.4,4.3,7.9,7.9l1.5,6.1
					c0,0,1.5,6.1-2.3,9.9c-2.3,2.3,0.2,7.4,4,4c9.6-8.4,19.2-7,22.9,1.2l15.8,37.3c2.4,6.1,7.9,13,13.9,17.8c2,1.7,4.4,1.4,7.3-1.1
					l32.4-27.5c1.8-1.2,1.8-2.4,0.7-3.5c-1.4-1.4-2.9-2-4.1-2.9c0,0-3.1-1.8-6.4-6.1l-16.6-27.8c-3.2-5.6-3.2-9.9,3.3-13.7
					c4.1-2.3,9.2-6.3,12.6-9.6c5.6-5.6,9.2-12.1,12.1-18.8c0.8-2,0.4-2.9-1.5-4.8c-5.1-4.6-15.4-17.5,1.9-34.9l25.1-25.1l-1.3-2.9
					l7.6-7.6l-0.4-1.2L397.8,177l4.8-4.8l-0.2-0.7l-7.9-7.9L393.8,163.3z M371.9,270.8c-1.8,3.3-4.2,7-7.8,10.7
					c-3.5,3.5-8.2,7-14.7,10.5c-3.5,1.1-7.1-0.1-10.4-3.3c-4.4-4.4-7-9.8-0.2-16.6c0.9-0.9,2.3-0.5,3.3,0.4
					c6.5,6.5,17.6,7.9,24.7,1.2c0.6-0.6,0.2-1.9-1.2-1.2c-6.1,2.4-11.9,1.1-15.7-2.6c-1.1-1.1-1.8-2.4-2.6-3.8
					c-0.6-1.1-0.2-2.3,0.7-3.2l5.2-5.2c0,0,8-8.4,16.3-0.1C373.3,261.5,374.4,266.3,371.9,270.8z M396,182.7l-46.8,46.8l-1.8-1.8
					l46.8-46.8L396,182.7z"/>
			</g>
			<g>
				<path class="st1" d="M364.9,200.3H352c-1.1-38.1-31.9-68.9-70-70v-12.9c0-1.2-1-2.2-2.2-2.2s-2.2,1-2.2,2.2v12.9
					c-38.1,1.1-68.9,31.9-70,70h-12.9c-1.2,0-2.2,1-2.2,2.2s1,2.2,2.2,2.2h12.9c1.1,38.1,31.9,68.9,70,70v12.9c0,1.2,1,2.2,2.2,2.2
					s2.2-1,2.2-2.2v-12.9c38.1-1.1,68.9-31.9,70-70h12.9c1.2,0,2.2-1,2.2-2.2C367.1,201.3,366.1,200.3,364.9,200.3z M347.6,200.3
					h-31.9c-1.1-18.1-15.6-32.7-33.8-33.8v-31.9C317.6,135.8,346.5,164.6,347.6,200.3z M277.5,200.3h-29.4
					c1.1-15.7,13.7-28.3,29.4-29.4V200.3z M277.5,204.7v29.4c-15.7-1.1-28.3-13.7-29.4-29.4H277.5z M281.9,204.7h29.4
					c-1.1,15.7-13.7,28.3-29.4,29.4V204.7z M281.9,200.3v-29.4c15.7,1.1,28.3,13.7,29.4,29.4H281.9z M277.5,134.6v31.9
					c-18.1,1.1-32.7,15.6-33.8,33.8h-31.9C213,164.6,241.8,135.8,277.5,134.6z M211.9,204.7h31.9c1.1,18.1,15.6,32.7,33.8,33.8v31.9
					C241.8,269.2,213,240.4,211.9,204.7z M281.9,270.4v-31.9c18.1-1.1,32.7-15.6,33.8-33.8h31.9
					C346.5,240.4,317.6,269.2,281.9,270.4z"/>
			</g>
			<g>
				<path class="st1" d="M237.5,125.1c0,0,0.3,0.5,3.5,4.2l-10.4,10.5l-65.4,65.4c0,0-30,28.5-24.4,61.5c0,0,40.8-43.1,58.5-53.8
					l0,0c0,0-28.9,11.6-47.7,31.9c-0.3,0-4.6,6.3-7.6,12.4c1.9-4.5,4.8-10.2,9.2-16.2l2.5-2.7c5.4-5.4,19.8-18,45.2-29.2l59.4-60.8
					L260,148c2.4,1.9,2.9,2.5,2.9,2.5s0.9,0.8,1.4,0.3c0.6-0.7-0.8-2-0.8-2l-2.2-2.3l-1.4-1.4c1.9,0.1,3.9-0.6,5.3-2.1l0.4-0.4
					c2.4-2.4,2.8-5.8,1.2-8.6c2.8,1.5,6.2,1.1,8.6-1.2l0.4-0.4c2.1-2.1,2.7-5.2,1.6-7.8c2.6,1.1,5.7,0.5,7.8-1.6l0.4-0.4
					c2.2-2.2,2.7-5.4,1.5-8.1c2.7,1.2,5.9,0.7,8.1-1.5l0.4-0.4c2.1-2.1,2.6-5,1.7-7.6c2.6,0.9,5.5,0.4,7.6-1.7l0.4-0.4
					c2.4-2.4,2.8-5.9,1.2-8.6c2.4,0.7,5.2,0.2,7-1.7l0.4-0.4c1.6-1.6,2.3-4,1.9-6.2l1,1c1,1,2.7,1,3.7,0s1-2.7,0-3.7l-14.1-14.1
					c-1-1-2.7-1-3.7,0s-1,2.7,0,3.7l0.8,0.8c-2.2-0.4-4.5,0.2-6.2,1.9l-0.4,0.4c-1.8,1.8-2.4,4.6-1.7,7c-2.7-1.6-6.4-1.3-8.8,1.1
					l-0.4,0.4c-2.1,2.1-2.6,5.1-1.7,7.6c-2.5-0.9-5.5-0.4-7.6,1.6l-0.4,0.4c-2.3,2.3-2.7,5.5-1.4,8.2c-2.7-1.1-6.1-0.7-8.1,1.4
					l-0.4,0.4c-2.2,2.2-2.7,5.3-1.6,7.9c-2.6-1-5.7-0.6-7.8,1.6l-0.4,0.4c-2.4,2.4-2.8,5.9-1.2,8.6c-2.7-1.4-6.3-1.2-8.6,1.2
					l-0.4,0.4c-1.5,1.5-2.2,3.4-2.1,5.3l-1.6-1.6l-3-3.4c0,0-1.3-1.4-1.9-0.8C237,124.3,237.5,125.1,237.5,125.1z"/>
			</g>
		</g>
	</g>
</g>
</svg>
