<?xml version="1.0" encoding="utf-8"?>
<!-- Generator: Adobe Illustrator 22.1.0, SVG Export Plug-In . SVG Version: 6.00 Build 0)  -->
<svg version="1.1" id="Livello_1" xmlns="http://www.w3.org/2000/svg" xmlns:xlink="http://www.w3.org/1999/xlink" x="0px" y="0px"
	 viewBox="0 0 566.9 566.9" style="enable-background:new 0 0 566.9 566.9;" xml:space="preserve">
<style type="text/css">
	.st0{fill:#CB9F86;}
	.st1{fill:#FFFFFF;}
	.st2{fill:none;stroke:#FFFFFF;stroke-width:1.6826;stroke-miterlimit:10;}
</style>
<g>
	<g>
		<circle class="st0" cx="283.5" cy="283.5" r="257.4"/>
		<g>
			<path class="st1" d="M93.6,409.6h10.3c3.5,0,9.7,0,13.8,5.8c2.1,2.9,2.9,6.3,2.9,9.7c0,8.5-4.2,15.6-16,15.6h-11V409.6z
				 M101.6,433.7h3.4c5.9,0,7.6-4.1,7.6-8.5c0-1.8-0.4-4-1.5-5.8c-0.9-1.4-2.5-2.9-6.1-2.9h-3.4V433.7z"/>
			<path class="st1" d="M124.8,409.6h7.9v31.1h-7.9C124.8,440.7,124.8,409.6,124.8,409.6z"/>
			<path class="st1" d="M144.5,430.4c0,3.6,2.2,4.2,3.2,4.2c1.9,0,3-1.6,3-3c0-1.6-1.3-2.1-6.1-4.2c-2.2-0.9-7.6-3.1-7.6-8.9
				c0-6.3,5.7-9.6,10.9-9.6c4.3,0,10.3,2.2,10.5,9.7h-7.9c-0.2-1.1-0.4-3-2.9-3c-1.4,0-2.7,1-2.7,2.4s0.8,1.8,6.4,4.3
				c5.8,2.6,7.3,5.3,7.3,8.9c0,5-2.6,10-10.9,10c-8.2,0-11.4-4.8-11.2-10.9h8V430.4z"/>
			<path class="st1" d="M193.4,429.1c-1.8,7.4-8.2,12.2-15.7,12.2c-9.8,0-16.4-7.8-16.4-16.2c0-7.9,6.1-16.1,16.3-16.1
				c9.8,0,15,7.5,15.8,12.4H185c-0.9-2.3-3.2-5.4-7.5-5.4c-5.3,0-8.3,4.7-8.3,9.1c0,4.7,3.2,9.3,8.4,9.3c5,0,7-4.2,7.5-5.3H193.4z"
				/>
			<path class="st1" d="M197.5,409.6h10.2c4.9,0,7.9,0.9,9.6,2.2c2.6,2,3.8,5.1,3.8,8.5c0,2.4-0.7,4.2-1.6,5.6
				c-1.1,1.6-2.6,2.7-4,3.3l6.4,11.4h-8.2l-8.1-15h1.3c2,0,3.7-0.2,4.8-0.8c1-0.6,1.8-2.1,1.8-3.8c0-1.6-0.8-2.9-1.9-3.6
				c-0.9-0.5-2.1-0.8-3.2-0.8h-2.9v24.1h-7.9v-31.1H197.5z"/>
			<path class="st1" d="M225,409.6h7.9v31.1H225V409.6z"/>
			<path class="st1" d="M238.6,440.7v-31.1h10.6l5.8,20.1l5.7-20.1h10.7v31.1h-7.3l0.3-23.3l-6.7,23.3h-5.3l-6.7-23.3l0.3,23.3
				H238.6z"/>
			<path class="st1" d="M277,409.6h7.9v31.1H277V409.6z"/>
			<path class="st1" d="M309.4,428.6l-0.2-19h7.6v31.1H310L298.1,422l0.2,18.8h-7.6v-31.1h6.9L309.4,428.6z"/>
			<path class="st1" d="M328.7,440.7h-8.6l12.3-31.1h6.9l11.9,31.1h-8.7l-1.5-4.5h-10.9L328.7,440.7z M335.5,419l-3.4,10.9h6.9
				L335.5,419z"/>
			<path class="st1" d="M362,433.7h9.9v7h-19.6v-5.2l10.7-18.9h-10.7v-7h19.6v6.4L362,433.7z"/>
			<path class="st1" d="M375.4,409.6h7.9v31.1h-7.9V409.6z"/>
			<path class="st1" d="M387.7,425.5c0-10.2,7.8-16.5,16.4-16.5c9.6,0,16.4,7.5,16.4,16.1c0,8.7-6.8,16.1-16.5,16.1
				C394.2,441.3,387.7,433.5,387.7,425.5L387.7,425.5z M395.6,425.1c0,4.8,3.2,9.2,8.6,9.2c5.6,0,8.4-5.1,8.4-9.1s-2.7-9.2-8.5-9.2
				C398.6,416,395.6,420.7,395.6,425.1L395.6,425.1z"/>
			<path class="st1" d="M443.6,428.6l-0.2-19h7.6v31.1h-6.9L432.3,422l0.2,18.8h-7.6v-31.1h6.9L443.6,428.6z"/>
			<path class="st1" d="M456.7,409.6h17.6v7h-9.7v4.8h9.4v7h-9.4v5.3h9.7v7h-17.6V409.6z"/>
			<path class="st1" d="M210.5,460.1h17.6v7h-9.7v4.8h9.4v7h-9.4v5.3h9.7v7h-17.6V460.1z"/>
			<path class="st1" d="M244.3,476c0-10.2,7.8-16.5,16.4-16.5c9.6,0,16.4,7.5,16.4,16.1c0,8.7-6.8,16.1-16.5,16.1
				C250.9,491.8,244.3,484,244.3,476L244.3,476z M252.3,475.6c0,4.8,3.2,9.2,8.6,9.2c5.6,0,8.4-5.1,8.4-9.1s-2.7-9.2-8.5-9.2
				C255.3,466.5,252.3,471.2,252.3,475.6L252.3,475.6z"/>
			<path class="st1" d="M281.5,460.1h10.3c3.5,0,9.7,0,13.7,5.8c2.1,2.9,2.9,6.3,2.9,9.7c0,8.5-4.2,15.6-16,15.6h-10.9V460.1z
				 M289.4,484.2h3.4c5.9,0,7.6-4.1,7.6-8.5c0-1.8-0.4-4-1.5-5.8c-0.9-1.4-2.5-2.9-6.1-2.9h-3.5v17.2H289.4z"/>
			<path class="st1" d="M312.7,460.1h7.9v31.1h-7.9V460.1z"/>
			<path class="st1" d="M324.9,476c0-10.2,7.8-16.5,16.4-16.5c9.6,0,16.4,7.5,16.4,16.1c0,8.7-6.8,16.1-16.5,16.1
				C331.5,491.8,324.9,484,324.9,476L324.9,476z M332.9,475.6c0,4.8,3.2,9.2,8.6,9.2c5.6,0,8.4-5.1,8.4-9.1s-2.7-9.2-8.5-9.2
				C335.9,466.5,332.9,471.2,332.9,475.6L332.9,475.6z"/>
		</g>
		<g id="DISCRIMINATION_OF_MAN_4_">
			<g id="Men_4_">
				<g>
					<g>
						<path class="st2" d="M377.7,228.1c11,0,19.9-8.9,19.9-19.9s-8.9-19.9-19.9-19.9s-19.9,8.9-19.9,19.9
							C357.8,219.2,366.7,228.1,377.7,228.1z"/>
					</g>
					<g>
						<path class="st2" d="M415.8,243.3c-0.2-7.5-2.8-16.8-11.5-19.1c-0.7-0.2-4.8-0.5-4.8-0.5H395c-4.3,4.8-10.4,7.7-17.3,7.7
							s-13.1-3-17.3-7.7h-4.5c0,0-4.1,0.2-4.8,0.5c-8.7,2.3-11.3,11.6-11.5,19.1c0,0.7-0.1,2.7-0.1,3.1v42.1v0.1
							c0,3.5,3,6.3,6.7,6.3s6.7-2.8,6.7-6.3v-3.2v-39v-0.1h0.6c0,0,0.9,0,1.8,0h0.6h2l0,0v37.8l0,0v74.8c0,4.3,3.6,7.7,8.1,7.7l0,0
							l0,0c4.5,0,8.1-3.5,8.1-7.7v-67.2h7.1v67.2c0,4.3,3.6,7.7,8.1,7.7l0,0l0,0c4.5,0,8.1-3.5,8.1-7.7l-0.1-112.6l4.6,0.1h0.6v0.1
							v22.1v20.1c0,3.5,3,6.3,6.7,6.3s6.7-2.8,6.7-6.3v-26.8v-15.4C415.9,246.1,415.8,244,415.8,243.3z"/>
					</g>
					<g>
						<path class="st2" d="M408.7,190.1c-1.1-1.1-5.1-0.7-7.3,5.9c3.2-1.9,4.8-1,6.8-2.1C409.6,193.1,409.8,191.2,408.7,190.1z"/>
					</g>
					<g>
						<path class="st2" d="M410.8,205.5c1.4,0.6,3.1-0.5,3.2-2c0.2-1.5-2.7-4.4-9.1-1.9C408.3,202.9,408.7,204.7,410.8,205.5z"/>
					</g>
					<g>
						<path class="st2" d="M347.1,193.8c2,1.1,3.6,0.2,6.8,2.1c-2.1-6.6-6.2-7-7.3-5.9C345.5,191.2,345.7,193.1,347.1,193.8z"/>
					</g>
					<g>
						<path class="st2" d="M344.6,205.5c2.1-0.9,2.4-2.7,5.9-3.9c-6.5-2.6-9.3,0.3-9.1,1.9C341.5,205.1,343.1,206.1,344.6,205.5z"/>
					</g>
				</g>
				<g id="group_4_">
					<g id="man_8_">
						<g id="body_8_">
							<path class="st1" d="M151.1,170.3v44.4c0,3.7,3,6.7,6.7,6.7s6.7-3,6.7-6.7v-44.4v-0.1h0.6c0,0,3.3,0,4.4,0
								c0,15.9,0,31.8,0,47.7l0,0v26.6l0,0v44.1c0,4.5,3.6,8.1,8.1,8.1l0,0l0,0c4.5,0,8.1-3.6,8.1-8.1v-70.7h7.1v70.7
								c0,4.5,3.6,8.1,8.1,8.1l0,0l0,0c4.5,0,8.1-3.6,8.1-8.1v-44.1l0,0v-26.6l0,0c0-15.9,0-31.8,0-47.7c1.1,0,4.4,0,4.4,0h0.6v0.1
								v44.4c0,3.7,3,6.7,6.7,6.7s6.7-3,6.7-6.7v-44.4c0-0.4,0-0.7-0.1-1c0-0.7,0-1.5,0-2.2c-0.2-7.9-2.8-17.7-11.5-20.1
								c-0.7-0.2-4.8-0.5-4.8-0.5s-12.1,0-21.9,0c-9.8,0-21.9,0-21.9,0s-4.1,0.3-4.8,0.5c-8.7,2.4-11.3,12.2-11.5,20.1
								c0,0.7,0,1.5,0,2.2C151.1,169.6,151.1,170,151.1,170.3z"/>
						</g>
						<g id="head_8_">
							<path class="st1" d="M189.3,141.5c11,0,19.9-8.9,19.9-19.9c0-11-8.9-19.9-19.9-19.9s-19.9,8.9-19.9,19.9
								C169.4,132.6,178.3,141.5,189.3,141.5z"/>
						</g>
					</g>
					<g id="man_7_">
						<g id="body_7_">
							<path class="st1" d="M333.4,195.1c0,0-27.8-37.7-28.3-38.3c-3.6-4.7-8.9-9.4-14.8-10.1v-0.1c-3.8,0-8.9,0-16.2,0
								c-9.8,0-21.9,0-21.9,0s-4.1,0.3-4.8,0.5c-8.7,2.4-11.3,12.2-11.5,20.1c0,0.7,0,1.5,0,2.2c-0.1,0.3-0.1,0.7-0.1,1v44.4
								c0,3.7,3,6.7,6.7,6.7s6.7-3,6.7-6.7v-44.4v-0.1h0.6c0,0,3.3,0,4.4,0c0,15.9,0,31.8,0,47.7l0,0v26.6v44.1
								c0,4.5,3.6,8.1,8.1,8.1l0,0l0,0c4.5,0,8.1-3.6,8.1-8.1V218h7.1v70.7c0,4.5,3.6,8.1,8.1,8.1l0,0l0,0c4.5,0,8.1-3.6,8.1-8.1
								v-44.1v-17.1v-9.6v-47.7l2.4-3.1l26.3,35.9c2.2,3,6.4,3.6,9.3,1.4C334.9,202.2,335.5,198,333.4,195.1z"/>
						</g>
						<g id="head_7_">
							<path class="st1" d="M274.1,141.5c11,0,19.9-8.9,19.9-19.9c0-11-8.9-19.9-19.9-19.9s-19.9,8.9-19.9,19.9
								C254.2,132.6,263.1,141.5,274.1,141.5z"/>
						</g>
					</g>
				</g>
			</g>
		</g>
	</g>
</g>
</svg>
