<?xml version="1.0" encoding="utf-8"?>
<!-- Generator: Adobe Illustrator 22.1.0, SVG Export Plug-In . SVG Version: 6.00 Build 0)  -->
<svg version="1.1" id="Livello_1" xmlns="http://www.w3.org/2000/svg" xmlns:xlink="http://www.w3.org/1999/xlink" x="0px" y="0px"
	 viewBox="0 0 566.9 566.9" style="enable-background:new 0 0 566.9 566.9;" xml:space="preserve">
<style type="text/css">
	.st0{fill:#322D6C;}
	.st1{fill:#FFFFFF;}
</style>
<g>
	<g>
		<circle class="st0" cx="283.5" cy="283.5" r="257.4"/>
		<g>
			<path class="st1" d="M214.1,440.7h-8.6l12.3-31.1h6.9l11.9,31.1h-8.7l-1.5-4.5h-10.9L214.1,440.7z M220.9,419l-3.4,10.9h6.9
				L220.9,419z"/>
			<path class="st1" d="M240.1,409.6h7.9v24.1h9.2v7H240L240.1,409.6L240.1,409.6z"/>
			<path class="st1" d="M291.2,429.1c-1.8,7.4-8.2,12.2-15.7,12.2c-9.8,0-16.4-7.8-16.4-16.2c0-7.9,6.1-16.1,16.3-16.1
				c9.8,0,15,7.5,15.8,12.4h-8.3c-0.9-2.3-3.2-5.4-7.5-5.4c-5.3,0-8.3,4.7-8.3,9.1c0,4.7,3.2,9.3,8.4,9.3c5,0,7-4.2,7.5-5.3H291.2z"
				/>
			<path class="st1" d="M294,425.5c0-10.2,7.8-16.5,16.4-16.5c9.6,0,16.4,7.5,16.4,16.1c0,8.7-6.8,16.1-16.5,16.1
				C300.5,441.3,294,433.5,294,425.5L294,425.5z M301.9,425.1c0,4.8,3.2,9.2,8.6,9.2c5.6,0,8.4-5.1,8.4-9.1s-2.7-9.2-8.5-9.2
				C304.9,416,301.9,420.7,301.9,425.1L301.9,425.1z"/>
			<path class="st1" d="M331.3,409.6h7.9v24.1h9.2v7h-17.2v-31.1H331.3z"/>
			<path class="st1" d="M180.8,476c0-10.2,7.8-16.5,16.4-16.5c9.6,0,16.4,7.5,16.4,16.1c0,8.7-6.8,16.1-16.5,16.1
				C187.3,491.8,180.8,484,180.8,476L180.8,476z M188.7,475.6c0,4.8,3.2,9.2,8.6,9.2c5.6,0,8.4-5.1,8.4-9.1s-2.7-9.2-8.5-9.2
				C191.7,466.5,188.7,471.2,188.7,475.6L188.7,475.6z"/>
			<path class="st1" d="M230.9,460.1h10.3c3.5,0,9.7,0,13.7,5.8c2.1,2.9,2.9,6.3,2.9,9.7c0,8.5-4.2,15.6-16,15.6h-10.9V460.1z
				 M238.9,484.2h3.4c5.9,0,7.6-4.1,7.6-8.5c0-1.8-0.4-4-1.5-5.8c-0.9-1.4-2.5-2.9-6.1-2.9h-3.5v17.2H238.9z"/>
			<path class="st1" d="M262.1,460.1h10.2c4.9,0,7.9,0.9,9.6,2.2c2.6,2,3.8,5.1,3.8,8.5c0,2.4-0.7,4.2-1.6,5.6
				c-1.1,1.6-2.6,2.7-4,3.3l6.4,11.4h-8.2l-8.1-15h1.3c2,0,3.7-0.2,4.8-0.8c1-0.6,1.8-2.1,1.8-3.8c0-1.6-0.8-2.9-1.9-3.6
				c-0.9-0.5-2.1-0.8-3.2-0.8h-2.9v24.1h-7.9L262.1,460.1L262.1,460.1z"/>
			<path class="st1" d="M288,476c0-10.2,7.8-16.5,16.4-16.5c9.6,0,16.4,7.5,16.4,16.1c0,8.7-6.8,16.1-16.5,16.1
				C294.6,491.8,288,484,288,476L288,476z M296,475.6c0,4.8,3.2,9.2,8.6,9.2c5.6,0,8.4-5.1,8.4-9.1s-2.7-9.2-8.5-9.2
				C299,466.5,296,471.2,296,475.6L296,475.6z"/>
			<path class="st1" d="M347.1,470.5c-0.4-0.8-1-1.5-1.6-2.1c-1.3-1.1-3-1.9-5.2-1.9c-3.9,0-8.5,2.9-8.5,9c0,6.5,4.6,9.3,8.5,9.3
				c2,0,3.6-0.5,4.9-1.4c1.3-0.8,2.1-2.1,2.6-3.6h-9.3v-6.4H357c0.2,2.2-0.1,5.9-1.4,8.9c-3,6.9-10,9.4-15.1,9.4
				c-9.4,0-16.5-7.4-16.5-16.3c0-9.3,7.5-16,16.7-16c7.4,0,13.8,5,15.6,11h-9.2V470.5z"/>
			<path class="st1" d="M364.8,491.2h-8.6l12.3-31.1h6.9l11.9,31.1h-8.7l-1.5-4.5h-10.9L364.8,491.2z M371.5,469.5l-3.4,10.9h6.9
				L371.5,469.5z"/>
		</g>
		<g>
			<g>
				<g>
					<path class="st1" d="M387.9,339.3l-0.6,0.2c-0.7,0.2-1.4-0.1-1.6-0.8l-5.1-14.4c-0.2-0.7-1-1-1.6-0.8l-27.8,9.8
						c-0.7,0.2-1,1-0.8,1.6l5.1,14.4c0.2,0.7-0.1,1.4-0.8,1.6l-0.6,0.2c-2.7,1-4.1,3.9-3.2,6.6l0.6,1.6c1,2.7,3.9,4.1,6.6,3.2
						l33.9-11.9c2.7-1,4.1-3.9,3.2-6.6l-0.6-1.6C393.6,339.7,390.6,338.3,387.9,339.3z"/>
				</g>
				<g>
					<path class="st1" d="M332.7,332.4l60-21.1c2.7-1,4.1-3.9,3.2-6.6l-0.6-1.6c-1-2.7-3.9-4.1-6.6-3.2l-3.8,1.3
						c-0.7,0.2-1.4-0.1-1.6-0.8l-4.1-11.6c-0.2-0.5-0.7-0.9-1.2-0.9h-12.2c-1.5,0-1.8-2-0.4-2.5l10-3.5c0.7-0.2,1-1,0.8-1.6
						l-2.9-8.3c-0.2-0.5-0.7-0.9-1.2-0.9h-12.2c-1.5,0-1.8-2-0.4-2.5l10-3.5c0.7-0.2,1-1,0.8-1.6l-2.9-8.3c-0.2-0.5-0.7-0.9-1.2-0.9
						H354c-1.5,0-1.8-2-0.4-2.5l10-3.5c0.7-0.2,1-1,0.8-1.6l-2.9-8.3c-0.2-0.5-0.7-0.9-1.2-0.9h-12.2c-1.5,0-1.8-2-0.4-2.5l10-3.5
						c0.7-0.2,1-1,0.8-1.6l-2.9-8.3c-0.2-0.5-0.7-0.9-1.2-0.9h-12.2c-1.5,0-1.8-2-0.4-2.5l10-3.5c0.7-0.2,1-1,0.8-1.6l-3.3-9.4
						c-2.3-6.6-9.6-10.1-16.2-7.8l-2.2,0.8c-0.7,0.2-1.4-0.1-1.6-0.8l-3.2-9.2c-0.8-2.3-3.4-3.6-5.7-2.7l0,0
						c-0.7,0.2-1.4-0.1-1.6-0.8L299.1,127c-0.5-1.3-2.4-1.1-2.5,0.3l-0.9,10.6c0,0.2,0,0.4,0.1,0.5l16.5,47.1
						c0.2,0.7-0.1,1.4-0.8,1.6l0,0c-2.3,0.8-3.6,3.4-2.7,5.7l3.2,9.2c0.2,0.7-0.1,1.4-0.8,1.6l-2.2,0.8c-6.6,2.3-10.1,9.6-7.8,16.2
						l34.1,97.2c0.2,0.7-0.1,1.4-0.8,1.6l-5.4,1.9c-2.7,0.9-4.1,3.9-3.2,6.6l0.6,1.6C327.1,331.9,330,333.4,332.7,332.4z"/>
				</g>
			</g>
			<path class="st1" d="M229.3,152.4c-3.9-3.3-4.6-7.2-5-11v-39.8c1.2-0.3,2.1-1.3,2.1-2.6V88.2c0-1.3-0.9-2.3-2.1-2.6v-5.9
				c-5-3-24.7-3.7-30,0v5.8l0,0c-1.5,0-2.7,1.2-2.7,2.7v10.7c0,1.5,1.2,2.7,2.7,2.7l0,0v39.8c-0.4,3.8-1.1,7.7-5,11
				c-10.4,9.6-19.9,19.8-18.4,36.5v15.5v0.2v0.3v0.3v0.3v0.3v0.3v0.3v0.3v0.3v0.3v0.3v143.7c0,4.8,3.9,8.8,8.8,8.8h15.2h28.7h15.2
				c4.8,0,8.8-3.9,8.8-8.8V207.4v-0.3v-0.3v-0.3v-0.3V206v-0.3v-0.3v-0.3v-0.3v-0.3v-0.2v-15.5C249.1,172.2,239.7,162,229.3,152.4z
				 M223.6,290.6h-46.8v-90.4h46.8V290.6z"/>
			<g>
				<g>
					<g>
						<path class="st1" d="M280.7,339c-4.6,0-8.9,0.5-12.7,1.3c-0.3,0-0.6,0-0.8,0.2c-9.2,2.1-15.3,6.3-15.3,11.3v11.3
							c0,6.3,10.8,12.8,28.9,12.8s28.9-6.5,28.9-12.8v-11.3C309.6,344.6,296.9,339,280.7,339z M306.6,351.8c0,3.7-5.6,6.7-12.9,8.4
							l-22.3-17.4c3-0.5,6.2-0.7,9.2-0.7C293,342,306.6,346,306.6,351.8z M267.6,343.4l22.3,17.4c-3,0.5-6.2,0.7-9.2,0.7
							c-12.3,0-25.9-4-25.9-9.8C254.8,348.1,260.4,345.1,267.6,343.4z M280.7,372.9c-15.3,0-25.9-5.2-25.9-9.8v-5.6
							c4.7,4.2,14.4,7.1,25.9,7.1c4.6,0,8.9-0.5,12.7-1.3c0,0,0,0,0.1,0c0.2,0,0.5-0.1,0.7-0.2c5.4-1.2,9.7-3.2,12.4-5.6v5.6
							C306.6,367.7,296,372.9,280.7,372.9z"/>
					</g>
					<g>
						<path class="st1" d="M267,303.5c6.9-6.9,18-6.9,24.9,0l31.9,31.9c3.3,3.3,5.1,7.7,5.1,12.4s-1.8,9.1-5.1,12.4
							c-3.3,3.3-7.8,5.1-12.4,5.1c-1.2,0-2.4-0.1-3.6-0.4c-0.8-0.2-1.3-0.9-1.2-1.7c0.2-0.8,0.9-1.3,1.7-1.2c4.9,1,9.8-0.5,13.3-4
							c2.8-2.8,4.3-6.4,4.3-10.4s-1.5-7.6-4.3-10.4l-14.5-14.5l-18.8,18.8c-0.3,0.3-0.7,0.4-1,0.4c-0.4,0-0.8-0.1-1-0.4
							c-0.6-0.6-0.6-1.5,0-2.1l18.8-18.8l-15.3-15.3c-5.7-5.7-15-5.7-20.7,0c-2.8,2.8-4.3,6.4-4.3,10.4s1.5,7.6,4.3,10.3l12.9,12.6
							c0.6,0.6,0.6,1.5,0,2.1s-1.5,0.6-2.1,0L267,328.4c-3.3-3.3-5.1-7.7-5.1-12.4S263.7,306.8,267,303.5z"/>
					</g>
				</g>
				<g>
					<path class="st1" d="M264.8,315.9c0-3.9,1.5-7.6,4.3-10.4c5.7-5.7,15-5.7,20.7,0l15.3,15.3l-20.6,20.6l-15.4-15.2
						C266.3,323.5,264.8,319.8,264.8,315.9z"/>
				</g>
			</g>
		</g>
	</g>
</g>
</svg>
